%TF.GenerationSoftware,KiCad,Pcbnew,10.0.4*%
%TF.CreationDate,2026-07-11T22:35:00+09:00*%
%TF.ProjectId,multi_i2c_bridge,6d756c74-695f-4693-9263-5f6272696467,rev?*%
%TF.SameCoordinates,Original*%
%TF.FileFunction,Soldermask,Bot*%
%TF.FilePolarity,Negative*%
%FSLAX46Y46*%
G04 Gerber Fmt 4.6, Leading zero omitted, Abs format (unit mm)*
G04 Created by KiCad (PCBNEW 10.0.4) date 2026-07-11 22:35:00*
%MOMM*%
%LPD*%
G01*
G04 APERTURE LIST*
G04 Aperture macros list*
%AMRoundRect*
0 Rectangle with rounded corners*
0 $1 Rounding radius*
0 $2 $3 $4 $5 $6 $7 $8 $9 X,Y pos of 4 corners*
0 Add a 4 corners polygon primitive as box body*
4,1,4,$2,$3,$4,$5,$6,$7,$8,$9,$2,$3,0*
0 Add four circle primitives for the rounded corners*
1,1,$1+$1,$2,$3*
1,1,$1+$1,$4,$5*
1,1,$1+$1,$6,$7*
1,1,$1+$1,$8,$9*
0 Add four rect primitives between the rounded corners*
20,1,$1+$1,$2,$3,$4,$5,0*
20,1,$1+$1,$4,$5,$6,$7,0*
20,1,$1+$1,$6,$7,$8,$9,0*
20,1,$1+$1,$8,$9,$2,$3,0*%
%AMFreePoly0*
4,1,23,0.500000,-0.750000,0.000000,-0.750000,0.000000,-0.745722,-0.065263,-0.745722,-0.191342,-0.711940,-0.304381,-0.646677,-0.396677,-0.554381,-0.461940,-0.441342,-0.495722,-0.315263,-0.495722,-0.250000,-0.500000,-0.250000,-0.500000,0.250000,-0.495722,0.250000,-0.495722,0.315263,-0.461940,0.441342,-0.396677,0.554381,-0.304381,0.646677,-0.191342,0.711940,-0.065263,0.745722,0.000000,0.745722,
0.000000,0.750000,0.500000,0.750000,0.500000,-0.750000,0.500000,-0.750000,$1*%
%AMFreePoly1*
4,1,23,0.000000,0.745722,0.065263,0.745722,0.191342,0.711940,0.304381,0.646677,0.396677,0.554381,0.461940,0.441342,0.495722,0.315263,0.495722,0.250000,0.500000,0.250000,0.500000,-0.250000,0.495722,-0.250000,0.495722,-0.315263,0.461940,-0.441342,0.396677,-0.554381,0.304381,-0.646677,0.191342,-0.711940,0.065263,-0.745722,0.000000,-0.745722,0.000000,-0.750000,-0.500000,-0.750000,
-0.500000,0.750000,0.000000,0.750000,0.000000,0.745722,0.000000,0.745722,$1*%
G04 Aperture macros list end*
%ADD10FreePoly0,0.000000*%
%ADD11FreePoly1,0.000000*%
%ADD12RoundRect,0.190500X-1.079500X-0.444500X1.079500X-0.444500X1.079500X0.444500X-1.079500X0.444500X0*%
%ADD13RoundRect,0.190500X0.444500X-1.079500X0.444500X1.079500X-0.444500X1.079500X-0.444500X-1.079500X0*%
%ADD14RoundRect,0.190500X1.079500X0.444500X-1.079500X0.444500X-1.079500X-0.444500X1.079500X-0.444500X0*%
%ADD15C,3.200000*%
%ADD16RoundRect,0.250000X0.625000X-0.350000X0.625000X0.350000X-0.625000X0.350000X-0.625000X-0.350000X0*%
%ADD17O,1.750000X1.200000*%
%ADD18RoundRect,0.250000X-0.625000X0.350000X-0.625000X-0.350000X0.625000X-0.350000X0.625000X0.350000X0*%
G04 APERTURE END LIST*
%TO.C,JP1*%
G36*
X104325000Y-98575000D02*
G01*
X104625000Y-98575000D01*
X104625000Y-100075000D01*
X104325000Y-100075000D01*
X104325000Y-98575000D01*
G37*
%TD*%
D10*
%TO.C,JP1*%
X103825000Y-99325000D03*
D11*
X105125000Y-99325000D03*
%TD*%
D12*
%TO.C,U2*%
X112745000Y-62030000D03*
X112745000Y-64570000D03*
X112745000Y-67110000D03*
X112745000Y-69650000D03*
X112745000Y-72190000D03*
X112745000Y-74730000D03*
X112745000Y-77270000D03*
X112745000Y-79810000D03*
X112745000Y-82350000D03*
X112745000Y-84890000D03*
X112745000Y-87430000D03*
X112745000Y-89970000D03*
D13*
X126080000Y-90605000D03*
X123540000Y-90605000D03*
X121000000Y-90605000D03*
X118460000Y-90605000D03*
X115920000Y-90605000D03*
D14*
X129255000Y-89970000D03*
X129255000Y-87430000D03*
X129255000Y-84890000D03*
X129255000Y-82350000D03*
X129255000Y-79810000D03*
X129255000Y-77270000D03*
X129255000Y-74730000D03*
X129255000Y-72190000D03*
X129255000Y-69650000D03*
X129255000Y-67110000D03*
X129255000Y-64570000D03*
X129255000Y-62030000D03*
%TD*%
D15*
%TO.C,U4*%
X152050000Y-117050000D03*
X152050000Y-63050000D03*
X103050000Y-63050000D03*
X103050000Y-117050000D03*
%TD*%
D16*
%TO.C,J8*%
X147000000Y-110000000D03*
D17*
X147000000Y-108000000D03*
X147000000Y-106000000D03*
X147000000Y-104000000D03*
X147000000Y-102000000D03*
%TD*%
D16*
%TO.C,J7*%
X147000000Y-94000000D03*
D17*
X147000000Y-92000000D03*
X147000000Y-90000000D03*
X147000000Y-88000000D03*
X147000000Y-86000000D03*
%TD*%
D16*
%TO.C,J6*%
X147000000Y-78000000D03*
D17*
X147000000Y-76000000D03*
X147000000Y-74000000D03*
X147000000Y-72000000D03*
X147000000Y-70000000D03*
%TD*%
D16*
%TO.C,J5*%
X156000000Y-110000000D03*
D17*
X156000000Y-108000000D03*
X156000000Y-106000000D03*
X156000000Y-104000000D03*
X156000000Y-102000000D03*
%TD*%
D16*
%TO.C,J4*%
X156000000Y-94000000D03*
D17*
X156000000Y-92000000D03*
X156000000Y-90000000D03*
X156000000Y-88000000D03*
X156000000Y-86000000D03*
%TD*%
D16*
%TO.C,J3*%
X156000000Y-78000000D03*
D17*
X156000000Y-76000000D03*
X156000000Y-74000000D03*
X156000000Y-72000000D03*
X156000000Y-70000000D03*
%TD*%
D18*
%TO.C,J2*%
X104550000Y-94000000D03*
D17*
X104550000Y-96000000D03*
%TD*%
D18*
%TO.C,J1*%
X104550000Y-102000000D03*
D17*
X104550000Y-104000000D03*
X104550000Y-106000000D03*
X104550000Y-108000000D03*
%TD*%
D13*
%TO.C,U1*%
X111230000Y-115090000D03*
X113770000Y-115090000D03*
X116310000Y-115090000D03*
X118850000Y-115090000D03*
X121390000Y-115090000D03*
X123930000Y-115090000D03*
X126470000Y-115090000D03*
X129010000Y-115090000D03*
X131550000Y-115090000D03*
X134090000Y-115090000D03*
X136630000Y-115090000D03*
X139170000Y-115090000D03*
X139170000Y-97310000D03*
X136630000Y-97310000D03*
X134090000Y-97310000D03*
X131550000Y-97310000D03*
X129010000Y-97310000D03*
X126470000Y-97310000D03*
X123930000Y-97310000D03*
X121390000Y-97310000D03*
X118850000Y-97310000D03*
X116310000Y-97310000D03*
X113770000Y-97310000D03*
X111230000Y-97310000D03*
%TD*%
M02*
