M48
; DRILL file KiCad 10.0.4 date 2026-07-11T22:35:02
; FORMAT={-:-/ absolute / metric / decimal}
; #@! TF.CreationDate,2026-07-11T22:35:02+09:00
; #@! TF.GenerationSoftware,Kicad,Pcbnew,10.0.4
; #@! TF.FileFunction,Plated,1,2,PTH
FMAT,2
METRIC
; #@! TA.AperFunction,Plated,PTH,ViaDrill
T1C0.300
; #@! TA.AperFunction,Plated,PTH,ViaDrill
T2C0.500
; #@! TA.AperFunction,Plated,PTH,ViaDrill
T3C0.600
; #@! TA.AperFunction,Plated,PTH,ComponentDrill
T4C0.750
; #@! TA.AperFunction,Plated,PTH,ComponentDrill
T5C0.800
%
G90
G05
T1
X109.7Y-70.8
X113.508Y-99.2
X118.2Y-112.4
X129.9Y-99.9
X132.463Y-94.862
X133.175Y-70.0
X133.175Y-72.5
X133.175Y-75.0
X134.825Y-64.95
X134.825Y-70.0
X134.825Y-72.5
X134.825Y-75.0
X134.825Y-77.5
X134.825Y-80.0
X134.825Y-82.5
X134.825Y-85.0
X134.825Y-87.5
X134.825Y-90.0
X134.825Y-92.5
X138.175Y-70.0
X138.175Y-72.5
X138.175Y-75.0
X139.0Y-62.0
X139.825Y-67.5
X139.825Y-72.5
X139.825Y-75.0
X139.825Y-77.5
X139.825Y-80.0
X139.825Y-82.5
X139.825Y-85.0
X139.825Y-87.5
X139.825Y-90.0
X139.825Y-92.5
X139.966Y-70.141
X142.4Y-79.8
X142.4Y-82.0
X142.4Y-97.8
X142.4Y-98.83
X142.6Y-83.0
X142.6Y-85.0
X142.8Y-103.4
X142.9Y-70.1
X143.0Y-62.0
X143.0Y-63.787
X147.16Y-68.1
X150.05Y-74.3
X150.4Y-88.6
X151.35Y-91.15
X151.59Y-73.23
X152.27Y-87.56
X152.5Y-68.8
X156.7Y-66.5
X157.2Y-67.3
X158.0Y-68.0
T2
X102.2Y-84.0
X102.2Y-85.6
X102.4Y-89.8
X102.6Y-80.6
X102.6Y-81.6
X103.0Y-70.0
X103.6Y-89.8
X103.8Y-80.6
X103.8Y-81.6
X104.1Y-70.0
X105.5Y-70.1
X105.7Y-98.9
X105.7Y-99.7
X106.5Y-70.1
X108.62Y-89.71
X142.6Y-68.0
X143.6Y-66.0
T3
X106.4Y-84.1
T4
X104.55Y-94.0
X104.55Y-96.0
X104.55Y-102.0
X104.55Y-104.0
X104.55Y-106.0
X104.55Y-108.0
X147.0Y-70.0
X147.0Y-72.0
X147.0Y-74.0
X147.0Y-76.0
X147.0Y-78.0
X147.0Y-86.0
X147.0Y-88.0
X147.0Y-90.0
X147.0Y-92.0
X147.0Y-94.0
X147.0Y-102.0
X147.0Y-104.0
X147.0Y-106.0
X147.0Y-108.0
X147.0Y-110.0
X156.0Y-70.0
X156.0Y-72.0
X156.0Y-74.0
X156.0Y-76.0
X156.0Y-78.0
X156.0Y-86.0
X156.0Y-88.0
X156.0Y-90.0
X156.0Y-92.0
X156.0Y-94.0
X156.0Y-102.0
X156.0Y-104.0
X156.0Y-106.0
X156.0Y-108.0
X156.0Y-110.0
T5
X111.23Y-97.31
X111.23Y-115.09
X113.38Y-62.03
X113.38Y-64.57
X113.38Y-67.11
X113.38Y-69.65
X113.38Y-72.19
X113.38Y-74.73
X113.38Y-77.27
X113.38Y-79.81
X113.38Y-82.35
X113.38Y-84.89
X113.38Y-87.43
X113.38Y-89.97
X113.77Y-97.31
X113.77Y-115.09
X115.92Y-89.97
X116.31Y-97.31
X116.31Y-115.09
X118.46Y-89.97
X118.85Y-97.31
X118.85Y-115.09
X121.0Y-89.97
X121.39Y-97.31
X121.39Y-115.09
X123.54Y-89.97
X123.93Y-97.31
X123.93Y-115.09
X126.08Y-89.97
X126.47Y-97.31
X126.47Y-115.09
X128.62Y-62.03
X128.62Y-64.57
X128.62Y-67.11
X128.62Y-69.65
X128.62Y-72.19
X128.62Y-74.73
X128.62Y-77.27
X128.62Y-79.81
X128.62Y-82.35
X128.62Y-84.89
X128.62Y-87.43
X128.62Y-89.97
X129.01Y-97.31
X129.01Y-115.09
X131.55Y-97.31
X131.55Y-115.09
X134.09Y-97.31
X134.09Y-115.09
X136.63Y-97.31
X136.63Y-115.09
X139.17Y-97.31
X139.17Y-115.09
M30
